<svg width="200" height="50" viewBox="0 0 210 50" xmlns="http://www.w3.org/2000/svg">
    <defs>
        <linearGradient x1="0%" y1="0%" x2="100%" y2="0%" id="a">
            <stop stop-color="#3023AE" offset="0%"/>
            <stop stop-color="#C86DD7" offset="100%"/>
        </linearGradient>
    </defs>
    <path stroke="url(#a)"
          stroke-width="3"
          stroke-linejoin="round"
          stroke-linecap="round"
          d="M5 40 C 5.25 38.52, 8.65 10.66, 10 10 S 14.44 33.69, 15 35.08 S 18.58 34.59, 20 35.08 S 23.58 38.03, 25 38.52 S 28.5 38.59, 30 38.52 S 33.53 38.32, 35 38.03 S 38.5 36.56, 40 36.56 S 43.5 38.03, 45 38.03 S 48.5 36.63, 50 36.56 S 53.5 37.47, 55 37.54 S 58.5 37.12, 60 37.05 S 63.51 36.9, 65 37.05 S 68.5 38.03, 70 38.03 S 73.51 37.2, 75 37.05 S 78.52 37.27, 80 37.05 S 83.52 35.79, 85 35.57 S 88.54 35.21, 90 35.57 S 93.54 37.67, 95 38.03 S 98.56 38.45, 100 38.03 S 103.5 35.08, 105 35.08 S 108.5 38.03, 110 38.03 S 113.56 35.5, 115 35.08 S 118.5 35.08, 120 35.08 S 123.52 34.86, 125 35.08 S 128.53 36.27, 130 36.56 S 133.5 37.12, 135 37.05 S 138.5 36, 140 36.07 S 143.5 37.54, 145 37.54 S 148.5 36.07, 150 36.07 S 153.5 37.47, 155 37.54 S 158.5 36.56, 160 36.56 S 163.51 37.39, 165 37.54 S 168.52 37.76, 170 37.54 S 173.53 36.36, 175 36.07 S 178.56 36, 180 35.57 S 183.56 33.53, 185 33.11 S 188.51 32.47, 190 32.62 S 193.54 33.74, 195 34.1 S 198.51 35.23, 200 35.08 S 203.6 33.66, 205 33.11"
          fill="none"/>
    <circle r="4" cx="5" cy="40" fill="#3023AE"/>
    <circle r="4" cx="205" cy="33.11" fill="#C86DD7"/>      
</svg>